# xmcd
# 
# Track frame offsets:
#     182
#     19962
#     87680
#     129787
#     162122
#     224415
# 
# Disc length: 3231
# 
# Revision: 1
# Processed by: cddbd v1.5.2PL0 Copyright (c) Steve Scherf et al.
# Submitted via: fre:ac v1.0.17
# 
DISCID=4c0c9d06
DTITLE=36) The Cream - Crossroads - 36) The Cream - Crossroads
DYEAR=0
DGENRE=rock
TTITLE0=Crossroads-01
TTITLE1=Spoonful-02
TTITLE2=Traintime-03
TTITLE3=I'm so Glad-04
TTITLE4=Tood-05
TTITLE5=N.S.U-06
EXTD=
EXTT0=
EXTT1=
EXTT2=
EXTT3=
EXTT4=
EXTT5=
PLAYORDER=
